<svg width="84" height="86" viewBox="0 0 84 86" fill="none" xmlns="http://www.w3.org/2000/svg">
<path d="M5.90451 22.1782C6.21654 22.3284 6.44035 22.5392 6.57593 22.8107C6.71151 23.0821 6.72871 23.3952 6.62753 23.7502C7.16953 23.0149 7.78802 22.8146 8.483 23.1493L8.51491 23.1646C9.02551 23.4105 9.3439 23.8172 9.47007 24.3846C9.59266 24.9418 9.48192 25.5584 9.13786 26.2344C8.77273 26.9518 8.32345 27.4268 7.79003 27.6595C7.2566 27.8921 6.66381 27.8858 6.01166 27.6405L6.59621 26.492C7.29415 26.6821 7.81339 26.4426 8.15394 25.7735C8.47343 25.1458 8.37078 24.7056 7.84599 24.4529L7.81408 24.4375C7.32476 24.2019 6.92386 24.391 6.6114 25.0049L6.23222 25.7499L5.37059 25.335L5.6971 24.6935C5.97094 24.1554 5.87738 23.7754 5.41643 23.5535L5.38451 23.5381C4.94483 23.3264 4.58982 23.4861 4.31949 24.0172C4.05266 24.5415 4.1465 24.9903 4.601 25.3637L4.02171 26.5019C3.45051 26.1495 3.12135 25.7033 3.03422 25.1632C2.94 24.6197 3.04034 24.0583 3.33525 23.4789C3.63719 22.8856 4.01944 22.4642 4.48202 22.2146C4.94811 21.9581 5.41164 21.9408 5.8726 22.1628L5.90451 22.1782Z" fill="#020618"/>
<path d="M12.0197 21.1879C11.6488 21.6581 11.2261 21.9538 10.7515 22.075C10.2706 22.1915 9.78533 22.067 9.29563 21.7015C8.7557 21.2986 8.53599 20.7806 8.63649 20.1474C8.74181 19.5081 9.08589 18.819 9.66873 18.0801L10.1384 17.4847L9.8841 17.2949C9.5388 17.0372 9.2371 16.9139 8.97899 16.9251C8.72088 16.9362 8.46418 17.1035 8.20889 17.4272C7.78019 17.9707 7.79675 18.4681 8.25858 18.9195L7.41322 19.9912C6.90555 19.5347 6.66365 19.0195 6.68752 18.4455C6.71138 17.8716 6.9497 17.2976 7.40249 16.7235C8.40921 15.4473 9.51213 15.2566 10.7113 16.1514L13.9414 18.562L13.0816 19.652L12.4789 19.2022C12.6641 19.9031 12.511 20.565 12.0197 21.1879ZM11.41 20.3108C11.6893 19.9566 11.8254 19.6071 11.8182 19.2622C11.8158 18.9111 11.6577 18.6185 11.3438 18.3842L10.8541 18.0188L10.4061 18.5867C9.67878 19.5088 9.58193 20.169 10.1156 20.5672C10.5739 20.9092 11.0053 20.8238 11.41 20.3108Z" fill="#020618"/>
<path d="M14.9595 13.7013C15.3697 14.2924 15.6184 14.7548 15.7056 15.0884L17.5287 13.5558L14.8588 10.551L13.4308 11.7513C14.2264 12.7408 14.7359 13.3908 14.9595 13.7013ZM16.8061 17.4746L15.8811 18.2522L14.1969 16.3566L14.4932 16.1075C14.6023 15.9242 14.6074 15.7063 14.5085 15.4538C14.4045 15.1954 14.2108 14.8597 13.9275 14.4467C13.3558 13.615 12.6457 12.7216 11.7971 11.7665L15.2457 8.86761L18.6063 12.6499L19.2889 12.0762L20.9731 13.9717L20.0481 14.7493L19.0265 13.6701L15.8563 16.335L16.8061 17.4746Z" fill="#020618"/>
<path d="M22.2985 11.4665C21.7671 11.7566 21.2588 11.8664 20.7735 11.796C20.2843 11.7188 19.8887 11.4185 19.5866 10.8949C19.2535 10.3177 19.2613 9.75735 19.6101 9.21386C19.9658 8.6666 20.5612 8.16505 21.3961 7.7092L22.0689 7.34188L21.912 7.07005C21.699 6.7009 21.4716 6.47198 21.2299 6.3833C20.9882 6.29462 20.6844 6.35011 20.3187 6.54978C19.7046 6.88508 19.5183 7.34863 19.76 7.94045L18.549 8.60161C18.2673 7.98754 18.2536 7.4213 18.5079 6.90288C18.7623 6.38446 19.2138 5.94819 19.8625 5.59406C21.3047 4.80668 22.3956 5.05397 23.1354 6.33594L25.1282 9.78919L23.8965 10.4617L23.5246 9.81733C23.411 10.5325 23.0023 11.0822 22.2985 11.4665ZM22.0932 10.4267C22.4934 10.2082 22.76 9.93908 22.8931 9.61929C23.0331 9.29573 23.0062 8.96616 22.8126 8.63056L22.5105 8.10704L21.8687 8.4574C20.8267 9.02627 20.4704 9.59596 20.7996 10.1665C21.0823 10.6564 21.5135 10.7432 22.0932 10.4267Z" fill="#020618"/>
<path d="M30.1647 2.49103L28.3583 3.06126L29.9448 7.81625L28.5787 8.24748L26.9922 3.4925L25.1858 4.06273L24.856 3.0744L29.8349 1.5027L30.1647 2.49103Z" fill="#020618"/>
<path d="M32.8155 0.678539L34.2401 0.501379L34.499 2.47114L35.6058 2.33351C36.3201 2.24469 36.9161 2.34904 37.394 2.64655C37.8719 2.94406 38.1535 3.4173 38.2387 4.06625L38.2433 4.10061C38.3296 4.75719 38.1824 5.27599 37.8017 5.65699C37.4199 6.03036 36.8523 6.2639 36.0988 6.3576L33.6027 6.66799L32.8155 0.678539ZM35.7912 5.38323C36.5526 5.28855 36.8906 4.91673 36.8053 4.26778L36.8008 4.23342C36.7125 3.56156 36.2877 3.27297 35.5263 3.36765L34.6315 3.47893L34.8964 5.4945L35.7912 5.38323Z" fill="#020618"/>
<path d="M45.5102 0L47.9756 0.428936C49.4633 0.687788 50.116 1.31348 49.9335 2.30602L49.9293 2.32875C49.7997 3.03338 49.3574 3.40602 48.6023 3.44666C49.4724 3.78571 49.842 4.31134 49.711 5.02354L49.7048 5.05764C49.6003 5.62588 49.3215 6.02698 48.8685 6.26093C48.4247 6.48866 47.8367 6.53882 47.1045 6.41143L44.4171 5.94387L45.5102 0ZM46.7547 1.16654L46.4767 2.67808L47.3297 2.82648C47.6724 2.88611 47.9328 2.86886 48.1109 2.77474C48.2904 2.67304 48.4052 2.48581 48.4553 2.21306L48.4595 2.19033C48.5083 1.92514 48.456 1.7284 48.3028 1.60008C48.1587 1.46555 47.9114 1.36779 47.5609 1.30681L46.7547 1.16654ZM46.3074 3.59864L46.0002 5.26929L47.005 5.44411C47.7373 5.57151 48.1535 5.36244 48.2538 4.81693L48.258 4.7942C48.3597 4.2411 48.0601 3.90357 47.359 3.7816L46.3074 3.59864Z" fill="#020618"/>
<path d="M54.0569 7.16402C54.5556 7.36068 55.0126 7.3499 55.4281 7.13168C55.8465 6.90633 56.1761 6.50477 56.417 5.92701L56.4482 5.85211C56.689 5.27435 56.7385 4.76646 56.5966 4.32845C56.4577 3.88331 56.1389 3.56241 55.6402 3.36575C55.1415 3.16909 54.6808 3.17843 54.258 3.39375C53.8426 3.61197 53.5145 4.00996 53.2736 4.58772L53.238 4.67332C52.9971 5.25108 52.9462 5.76254 53.0851 6.20768C53.227 6.64569 53.5509 6.96447 54.0569 7.16402ZM56.0797 8.21091C55.3024 8.51895 54.4847 8.50379 53.6267 8.16542C52.7687 7.82705 52.1696 7.28762 51.8293 6.54713C51.4993 5.80239 51.5112 5.00562 51.865 4.1568L51.9007 4.07121C52.2575 3.21526 52.8261 2.6297 53.6064 2.31452C54.3867 1.99935 55.2059 2.01095 56.0639 2.34931C56.9146 2.68479 57.5085 3.22634 57.8459 3.97397C58.1832 4.72159 58.1749 5.51982 57.8211 6.36863L57.7854 6.45423C57.4256 7.31731 56.8571 7.90287 56.0797 8.21091Z" fill="#020618"/>
<path d="M64.4583 7.91303L62.4249 6.57153L59.5399 10.7088L58.3513 9.92464L61.8359 4.92743L66.2466 7.83725L62.762 12.8345L61.5734 12.0503L64.4583 7.91303Z" fill="#020618"/>
<path d="M68.8636 9.67302L69.8568 10.6821L69.1366 11.3528C69.4911 11.2678 69.8714 11.2813 70.2774 11.3933C70.6947 11.5056 71.0538 11.7146 71.3547 12.0204C71.9074 12.582 72.1558 13.235 72.0999 13.9797C72.0553 14.7245 71.6814 15.4243 70.9783 16.079L70.9097 16.1428C70.2009 16.8028 69.46 17.1464 68.6871 17.1736C67.9196 17.2063 67.254 16.9363 66.6904 16.3637C66.3621 16.0301 66.1462 15.6716 66.0429 15.2884C65.9507 14.9054 65.9616 14.5436 66.0756 14.203L63.8378 16.2868L62.8446 15.2777L68.8636 9.67302ZM67.2673 15.347C67.6339 15.7195 68.0387 15.886 68.4818 15.8464C68.9303 15.8123 69.3946 15.5718 69.8748 15.1247L69.9434 15.0608C70.4235 14.6137 70.6826 14.1646 70.7207 13.7136C70.77 13.2628 70.625 12.8651 70.2857 12.5204C69.9246 12.1534 69.5115 11.9786 69.0466 11.996C68.5817 12.0133 68.1063 12.2482 67.6204 12.7006L67.5518 12.7645C67.066 13.2169 66.8012 13.6659 66.7577 14.1113C66.7253 14.557 66.8952 14.9689 67.2673 15.347Z" fill="#020618"/>
<path d="M72.1254 21.1716C72.4042 21.6193 72.7772 21.8765 73.2443 21.9432C73.7182 22.006 74.2293 21.8758 74.7775 21.5528L74.8486 21.511C75.3968 21.1879 75.7487 20.8096 75.9042 20.376C76.0666 19.9385 76.0083 19.4958 75.7295 19.0482C75.4508 18.6005 75.0758 18.34 74.6045 18.2667C74.1374 18.2 73.6297 18.3281 73.0815 18.6511L73.0003 18.6989C72.452 19.022 72.0968 19.4022 71.9344 19.8398C71.7789 20.2734 71.8425 20.7174 72.1254 21.1716ZM73.1031 23.1872C72.2907 22.982 71.6446 22.4943 71.165 21.724C70.6853 20.9538 70.5367 20.1729 70.7192 19.3815C70.9126 18.5926 71.412 17.9609 72.2174 17.4864L72.2986 17.4386C73.1108 16.96 73.9265 16.8214 74.7457 17.0227C75.5649 17.2239 76.2144 17.7097 76.694 18.4799C77.1696 19.2436 77.3127 20.0231 77.1235 20.8185C76.9342 21.614 76.4369 22.2489 75.6314 22.7235L75.5502 22.7713C74.7312 23.2539 73.9155 23.3925 73.1031 23.1872Z" fill="#020618"/>
<path d="M74.6841 28.492C74.387 27.6554 74.407 26.875 74.7442 26.1509C75.0915 25.4316 75.7214 24.9187 76.6339 24.612L76.7236 24.5819C77.6286 24.2777 78.4585 24.3042 79.2133 24.6613C79.9706 25.0257 80.4953 25.6189 80.7873 26.441C81.0353 27.1394 81.0665 27.7926 80.8806 28.4007C80.7022 29.0062 80.2469 29.4687 79.5147 29.788L79.0612 28.5113C79.7629 28.1533 79.9781 27.5924 79.7068 26.8285C79.544 26.3702 79.2389 26.0534 78.7915 25.878C78.3466 25.7099 77.8251 25.7264 77.2267 25.9275L77.137 25.9576C76.5012 26.1713 76.0642 26.4729 75.8258 26.8624C75.5975 27.2567 75.5712 27.7012 75.7469 28.1959C75.8761 28.5597 76.0944 28.8324 76.4017 29.0141C76.7091 29.1959 77.0724 29.2407 77.4918 29.1486L77.9221 30.3599C77.2259 30.545 76.5794 30.4691 75.9826 30.1322C75.3857 29.7953 74.9529 29.2486 74.6841 28.492Z" fill="#020618"/>
<path d="M78.0955 63.8218C77.7835 63.6716 77.5596 63.4608 77.4241 63.1893C77.2885 62.9179 77.2713 62.6048 77.3725 62.2498C76.8305 62.9851 76.212 63.1854 75.517 62.8507L75.4851 62.8354C74.9745 62.5895 74.6561 62.1828 74.5299 61.6154C74.4073 61.0582 74.5181 60.4416 74.8621 59.7656C75.2273 59.0482 75.6766 58.5732 76.21 58.3405C76.7434 58.1079 77.3362 58.1142 77.9883 58.3595L77.4038 59.508C76.7058 59.3179 76.1866 59.5574 75.8461 60.2265C75.5266 60.8542 75.6292 61.2944 76.154 61.5471L76.1859 61.5625C76.6752 61.7981 77.0761 61.609 77.3886 60.9951L77.7678 60.2501L78.6294 60.665L78.3029 61.3065C78.0291 61.8446 78.1226 62.2246 78.5836 62.4465L78.6155 62.4619C79.0552 62.6736 79.4102 62.5139 79.6805 61.9828C79.9473 61.4585 79.8535 61.0097 79.399 60.6363L79.9783 59.4981C80.5495 59.8505 80.8787 60.2967 80.9658 60.8367C81.06 61.3802 80.9597 61.9417 80.6647 62.5211C80.3628 63.1144 79.9806 63.5358 79.518 63.7854C79.0519 64.0419 78.5884 64.0592 78.1274 63.8372L78.0955 63.8218Z" fill="#020618"/>
<path d="M71.9803 64.8121C72.3512 64.3419 72.7739 64.0462 73.2485 63.925C73.7294 63.8085 74.2147 63.933 74.7044 64.2984C75.2443 64.7014 75.464 65.2194 75.3635 65.8526C75.2582 66.4919 74.9141 67.181 74.3313 67.9199L73.8616 68.5153L74.1159 68.7051C74.4612 68.9628 74.7629 69.086 75.021 69.0749C75.2791 69.0638 75.5358 68.8965 75.7911 68.5728C76.2198 68.0293 76.2033 67.5319 75.7414 67.0805L76.5868 66.0088C77.0944 66.4653 77.3363 66.9805 77.3125 67.5545C77.2886 68.1284 77.0503 68.7024 76.5975 69.2764C75.5908 70.5527 74.4879 70.7434 73.2887 69.8486L70.0586 67.438L70.9184 66.348L71.5211 66.7978C71.3359 66.0969 71.4889 65.435 71.9803 64.8121ZM72.59 65.6892C72.3107 66.0434 72.1746 66.3929 72.1818 66.7378C72.1842 67.0889 72.3423 67.3815 72.6562 67.6158L73.1459 67.9812L73.5939 67.4133C74.3212 66.4912 74.4181 65.831 73.8844 65.4328C73.4261 65.0908 72.9947 65.1762 72.59 65.6892Z" fill="#020618"/>
<path d="M69.0405 72.2987C68.6303 71.7076 68.3816 71.2452 68.2944 70.9116L66.4713 72.4442L69.1412 75.449L70.5692 74.2487C69.7736 73.2592 69.2641 72.6092 69.0405 72.2987ZM67.1939 68.5254L68.1189 67.7478L69.8031 69.6434L69.5068 69.8925C69.3977 70.0758 69.3926 70.2937 69.4915 70.5462C69.5955 70.8046 69.7892 71.1403 70.0725 71.5533C70.6442 72.385 71.3543 73.2784 72.2029 74.2335L68.7543 77.1324L65.3937 73.3501L64.7111 73.9238L63.0269 72.0283L63.9519 71.2507L64.9735 72.3299L68.1437 69.665L67.1939 68.5254Z" fill="#020618"/>
<path d="M61.7015 74.5335C62.2329 74.2434 62.7412 74.1336 63.2265 74.204C63.7157 74.2812 64.1113 74.5815 64.4134 75.1051C64.7465 75.6823 64.7387 76.2426 64.3899 76.7861C64.0342 77.3334 63.4388 77.8349 62.6039 78.2908L61.9311 78.6581L62.088 78.9299C62.301 79.2991 62.5284 79.528 62.7701 79.6167C63.0118 79.7054 63.3156 79.6499 63.6813 79.4502C64.2954 79.1149 64.4817 78.6514 64.24 78.0596L65.451 77.3984C65.7327 78.0124 65.7464 78.5787 65.4921 79.0971C65.2377 79.6155 64.7862 80.0518 64.1375 80.4059C62.6953 81.1933 61.6043 80.946 60.8646 79.6641L58.8718 76.2108L60.1035 75.5383L60.4754 76.1827C60.589 75.4675 60.9977 74.9178 61.7015 74.5335ZM61.9068 75.5733C61.5066 75.7918 61.24 76.0609 61.1069 76.3807C60.9669 76.7043 60.9938 77.0338 61.1874 77.3694L61.4895 77.893L62.1313 77.5426C63.1732 76.9737 63.5296 76.404 63.2004 75.8335C62.9177 75.3436 62.4865 75.2568 61.9068 75.5733Z" fill="#020618"/>
<path d="M53.8353 83.509L55.6417 82.9387L54.0552 78.1838L55.4213 77.7525L57.0078 82.5075L58.8142 81.9373L59.144 82.9256L54.1651 84.4973L53.8353 83.509Z" fill="#020618"/>
<path d="M51.1845 85.3215L49.7599 85.4986L49.501 83.5289L48.3942 83.6665C47.6799 83.7553 47.0839 83.651 46.606 83.3535C46.1281 83.0559 45.8465 82.5827 45.7613 81.9337L45.7567 81.8994C45.6704 81.2428 45.8176 80.724 46.1983 80.343C46.5801 79.9696 47.1477 79.7361 47.9012 79.6424L50.3973 79.332L51.1845 85.3215ZM48.2088 80.6168C47.4474 80.7114 47.1094 81.0833 47.1947 81.7322L47.1992 81.7666C47.2875 82.4384 47.7123 82.727 48.4737 82.6323L49.3685 82.5211L49.1036 80.5055L48.2088 80.6168Z" fill="#020618"/>
<path d="M38.4898 86L36.0244 85.5711C34.5367 85.3122 33.884 84.6865 34.0665 83.694L34.0707 83.6712C34.2003 82.9666 34.6426 82.594 35.3977 82.5533C34.5276 82.2143 34.158 81.6887 34.289 80.9765L34.2952 80.9424C34.3997 80.3741 34.6785 79.973 35.1315 79.7391C35.5753 79.5113 36.1633 79.4612 36.8955 79.5886L39.5829 80.0561L38.4898 86ZM37.2453 84.8335L37.5233 83.3219L36.6703 83.1735C36.3276 83.1139 36.0672 83.1311 35.8891 83.2253C35.7096 83.327 35.5948 83.5142 35.5447 83.7869L35.5405 83.8097C35.4917 84.0749 35.5439 84.2716 35.6972 84.3999C35.8413 84.5345 36.0886 84.6322 36.4391 84.6932L37.2453 84.8335ZM37.6926 82.4014L37.9998 80.7307L36.995 80.5559C36.2627 80.4285 35.8465 80.6376 35.7462 81.1831L35.742 81.2058C35.6403 81.7589 35.9399 82.0964 36.641 82.2184L37.6926 82.4014Z" fill="#020618"/>
<path d="M29.9431 78.836C29.4444 78.6393 28.9874 78.6501 28.5719 78.8683C28.1535 79.0937 27.8239 79.4952 27.583 80.073L27.5518 80.1479C27.311 80.7256 27.2615 81.2335 27.4034 81.6715C27.5423 82.1167 27.8611 82.4376 28.3598 82.6342C28.8585 82.8309 29.3192 82.8216 29.742 82.6062C30.1574 82.388 30.4855 81.99 30.7264 81.4123L30.762 81.3267C31.0029 80.7489 31.0538 80.2375 30.9149 79.7923C30.773 79.3543 30.4491 79.0355 29.9431 78.836ZM27.9203 77.7891C28.6976 77.481 29.5153 77.4962 30.3733 77.8346C31.2313 78.1729 31.8304 78.7124 32.1707 79.4529C32.5007 80.1976 32.4888 80.9944 32.135 81.8432L32.0993 81.9288C31.7425 82.7847 31.1739 83.3703 30.3936 83.6855C29.6133 84.0006 28.7941 83.989 27.9361 83.6507C27.0854 83.3152 26.4915 82.7737 26.1541 82.026C25.8168 81.2784 25.8251 80.4802 26.1789 79.6314L26.2146 79.5458C26.5744 78.6827 27.1429 78.0971 27.9203 77.7891Z" fill="#020618"/>
<path d="M19.5417 78.087L21.5751 79.4285L24.4601 75.2912L25.6487 76.0754L22.1641 81.0726L17.7534 78.1628L21.238 73.1656L22.4266 73.9497L19.5417 78.087Z" fill="#020618"/>
<path d="M15.1364 76.327L14.1432 75.3179L14.8634 74.6472C14.5089 74.7322 14.1286 74.7187 13.7226 74.6067C13.3053 74.4944 12.9462 74.2854 12.6453 73.9796C12.0926 73.418 11.8442 72.765 11.9001 72.0203C11.9447 71.2755 12.3186 70.5757 13.0217 69.921L13.0903 69.8572C13.7991 69.1972 14.54 68.8536 15.3129 68.8264C16.0804 68.7937 16.746 69.0637 17.3096 69.6363C17.6379 69.9699 17.8538 70.3284 17.9571 70.7116C18.0493 71.0946 18.0383 71.4564 17.9244 71.797L20.1622 69.7132L21.1554 70.7223L15.1364 76.327ZM16.7327 70.653C16.3661 70.2805 15.9613 70.114 15.5182 70.1536C15.0697 70.1877 14.6054 70.4282 14.1252 70.8753L14.0566 70.9392C13.5765 71.3863 13.3174 71.8354 13.2793 72.2864C13.23 72.7372 13.375 73.1349 13.7143 73.4796C14.0754 73.8466 14.4885 74.0214 14.9534 74.004C15.4183 73.9867 15.8937 73.7518 16.3796 73.2994L16.4482 73.2355C16.934 72.7831 17.1987 72.3341 17.2423 71.8887C17.2747 71.4429 17.1048 71.0311 16.7327 70.653Z" fill="#020618"/>
<path d="M11.8746 64.8284C11.5958 64.3807 11.2228 64.1235 10.7557 64.0568C10.2818 63.994 9.77073 64.1242 9.2225 64.4472L9.15143 64.4891C8.6032 64.8121 8.25131 65.1904 8.09576 65.624C7.93344 66.0616 7.99167 66.5042 8.27045 66.9518C8.54924 67.3995 8.92424 67.66 9.39548 67.7333C9.86261 67.8 10.3703 67.6719 10.9185 67.3489L10.9997 67.301C11.548 66.978 11.9033 66.5977 12.0656 66.1602C12.2211 65.7266 12.1575 65.2826 11.8746 64.8284ZM10.8969 62.8128C11.7093 63.018 12.3554 63.5057 12.835 64.276C13.3147 65.0462 13.4633 65.8271 13.2808 66.6185C13.0874 67.4074 12.588 68.039 11.7826 68.5136L11.7014 68.5614C10.8892 69.04 10.0735 69.1786 9.25428 68.9773C8.43508 68.7761 7.78564 68.2903 7.30597 67.5201C6.8304 66.7564 6.68725 65.9769 6.87652 65.1815C7.0658 64.386 7.56315 63.751 8.36857 63.2765L8.44979 63.2287C9.26876 62.7461 10.0845 62.6075 10.8969 62.8128Z" fill="#020618"/>
<path d="M9.31585 57.508C9.61302 58.3446 9.59299 59.125 9.25577 59.849C8.90848 60.5684 8.27859 61.0813 7.36612 61.388L7.27636 61.4181C6.37136 61.7223 5.54149 61.6958 4.78673 61.3387C4.02939 60.9743 3.50472 60.3811 3.21272 59.559C2.96465 58.8606 2.93355 58.2074 3.11942 57.5993C3.29782 56.9938 3.75309 56.5313 4.48525 56.212L4.93875 57.4887C4.23706 57.8467 4.02188 58.4076 4.29321 59.1715C4.45601 59.6298 4.76111 59.9466 5.20852 60.122C5.65335 60.2901 6.17494 60.2736 6.77329 60.0726L6.86304 60.0424C7.49878 59.8287 7.93584 59.5271 8.17421 59.1376C8.40252 58.7433 8.42882 58.2988 8.25311 57.8041C8.1239 57.4403 7.90562 57.1676 7.59828 56.9859C7.29094 56.8041 6.92757 56.7593 6.50819 56.8514L6.07794 55.6401C6.77406 55.455 7.42056 55.5309 8.01743 55.8678C8.6143 56.2047 9.04711 56.7514 9.31585 57.508Z" fill="#020618"/>
<path d="M6 43C6 44.6569 4.65685 46 3 46C1.34315 46 0 44.6569 0 43C0 41.3431 1.34315 40 3 40C4.65685 40 6 41.3431 6 43Z" fill="#020618"/>
<path d="M84 43C84 44.6569 82.6569 46 81 46C79.3431 46 78 44.6569 78 43C78 41.3431 79.3431 40 81 40C82.6569 40 84 41.3431 84 43Z" fill="#020618"/>
</svg>
